{"title":"Enders / Ender's Game 2013 Russian CamRip XviD Mp3 Idiocracy","uid":9164477,"size":1806606336,"categoryP":"video","categoryS":"movies","magnet":"?xt=urn:btih:cb799f47e08a2555df93e3cf6d34ffe96a8038de&amp;dn=Enders+%2F+Ender%27s+Game+2013+Russian+CamRip+XviD+Mp3+Idiocracy&amp;tr=udp%3A%2F%2Ftracker.openbittorrent.com%3A80&amp;tr=udp%3A%2F%2Fopen.demonii.com%3A1337&amp;tr=udp%3A%2F%2Ftracker.coppersurfer.tk%3A6969&amp;tr=udp%3A%2F%2Fexodus.desync.com%3A6969","seeders":1,"leechers":0,"uploader":"Satafakap","files":2,"time":1383943356,"description":"General\n\nComplete name       : Enders.Game.2013.Russian.CamRip.XviD.Mp3-Idiocracy.avi\nFormat              : AVI\nFormat/Info         : Audio Video Interleave\nFile size           : 1.66 GiB\nDuration            : 1h 45mn\nOverall bit rate    : 2 262 Kbps\nWriting application : VirtualDubMod 1.5.10.3 | www.virtualdub-fr.org || (build\n                      2550/release)\nWriting library     : VirtualDubMod build 2550/release\n\nSource:\t\t    : Igra.Endera.2013.D.TS.1400MB.PROPER_Santikov.Net.avi - Thanks\n                      and\n\t\t      Enders.Game.2013.iTALiAN.MD.CAM.XviD-THK.avi for the missing \n                      6 seconds - Thanks\n\nSample              : Yes\n\nVideo\n\nID                                       : 0\nFormat                                   : MPEG-4 Visual\nFormat profile                           : Advanced Simple@L5\nFormat settings, BVOP                    : 4\nFormat settings, QPel                    : No\nFormat settings, GMC                     : No warppoints\nFormat settings, Matrix                  : Default (MPEG)\nCodec ID                                 : XVID\nCodec ID/Hint                            : XviD\nDuration                                 : 1h 45mn\nBit rate                                 : 2 122 Kbps\nWidth                                    : 720 pixels\nHeight                                   : 320 pixels\nDisplay aspect ratio                     : 2.25:1\nFrame rate                               : 29.970 fps\nColor space                              : YUV\nChroma subsampling                       : 4:2:0\nBit depth                                : 8 bits\nScan type                                : Progressive\nCompression mode                         : Lossy\nBits/(Pixel*Frame)                       : 0.307\nStream size                              : 1.56 GiB (94%)\nWriting library                          : XviD 1.2.1 (UTC 2008-12-04)\n\nAudio\n\nID                                       : 1\nFormat                                   : MPEG Audio\nFormat version                           : Version 1\nFormat profile                           : Layer 3\nCodec ID                                 : 55\nCodec ID/Hint                            : MP3\nDuration                                 : 1h 45mn\nBit rate mode                            : Constant\nBit rate                                 : 128 Kbps\nChannel(s)                               : 2 channels\nSampling rate                            : 48.0 KHz\nCompression mode                         : Lossy\nStream size                              : 96.3 MiB (6%)\nAlignment                                : Aligned on interleaves\nInterleave, duration                     : 33 ms (1.00 video frame)\nInterleave, preload duration             : 504 ms\nWriting library                          : LAME3.99r\nEncoding settings                        : -m s -V 4 -q 0 -lowpass 17 -b 128","torrent":{"xt":"urn:btih:cb799f47e08a2555df93e3cf6d34ffe96a8038de","amp;dn":"Enders+%2F+Ender%27s+Game+2013+Russian+CamRip+XviD+Mp3+Idiocracy","amp;tr":["udp%3A%2F%2Ftracker.openbittorrent.com%3A80","udp%3A%2F%2Fopen.demonii.com%3A1337","udp%3A%2F%2Ftracker.coppersurfer.tk%3A6969","udp%3A%2F%2Fexodus.desync.com%3A6969"],"infoHash":"cb799f47e08a2555df93e3cf6d34ffe96a8038de","infoHashBuffer":{"type":"Buffer","data":[203,121,159,71,224,138,37,85,223,147,227,207,109,52,255,233,106,128,56,222]},"announce":[],"urlList":[]}}